PathFileType	4	(X/Y/Z)	Kaydara																																																																																																																									
DataRate	CameraRate	NumFrames	NumMarkers	Units	OrigDataRate	OrigDataStartFrame	OrigNumFrames																																																																																																																					
30	30	4	41	mm	30	147	167																																																																																																																					
Frame#	Time	PAIB_LFHD			PAIB_RFHD			PAIB_LBHD			PAIB_RBHD			PAIB_LFTShould			PAIB_RFTShould			PAIB_LRRShould			PAIB_RRRShould			PAIB_T10			PAIB_STRN			PAIB_TRUN			PAIB_LSHO			PAIB_LUPA			PAIB_LELB			PAIB_LFRM			PAIB_LWRA			PAIB_LWRB			PAIB_LFIN			PAIB_RSHO			PAIB_RUPA			PAIB_RELB			PAIB_RFRM			PAIB_RWRA			PAIB_RWRB			PAIB_RFIN			PAIB_LFWT			PAIB_RFWT			PAIB_LBWT			PAIB_RBWT			PAIB_LTHI			PAIB_LKNE			PAIB_LSHN			PAIB_LANK			PAIB_LHEE			PAIB_LTOE			PAIB_RTHI			PAIB_RKNE			PAIB_RSHN			PAIB_RANK			PAIB_RHEE			PAIB_RTOE		
		X1	Y1	Z1	X2	Y2	Z2	X3	Y3	Z3	X4	Y4	Z4	X5	Y5	Z5	X6	Y6	Z6	X7	Y7	Z7	X8	Y8	Z8	X9	Y9	Z9	X10	Y10	Z10	X11	Y11	Z11	X12	Y12	Z12	X13	Y13	Z13	X14	Y14	Z14	X15	Y15	Z15	X16	Y16	Z16	X17	Y17	Z17	X18	Y18	Z18	X19	Y19	Z19	X20	Y20	Z20	X21	Y21	Z21	X22	Y22	Z22	X23	Y23	Z23	X24	Y24	Z24	X25	Y25	Z25	X26	Y26	Z26	X27	Y27	Z27	X28	Y28	Z28	X29	Y29	Z29	X30	Y30	Z30	X31	Y31	Z31	X32	Y32	Z32	X33	Y33	Z33	X34	Y34	Z34	X35	Y35	Z35	X36	Y36	Z36	X37	Y37	Z37	X38	Y38	Z38	X39	Y39	Z39	X40	Y40	Z40	X41	Y41	Z41
																																																																																																																												
147	4.877	282.44099	1643.4967	1811.56754	98.21824	1641.10199	1802.80075	296.46673	1606.1795	1688.94699	93.20374	1616.10901	1690.2475	257.14352	1374.18854	1817.29889	134.5669	1367.32513	1815.46005	265.49742	1435.83466	1668.43231	110.99753	1430.97519	1681.20255	187.49121	1273.02429	1596.09283	205.07711	1306.61255	1855.13992	206.12024	1205.12558	1877.97974	384.75075	1385.03922	1738.06366	452.07951	1162.24487	1739.92844	472.8614	1078.56941	1706.08231	496.28971	974.62868	1773.51669	446.62979	889.92752	1893.59787	478.27759	852.44225	1829.59427	497.54448	836.24863	1897.45926	3.70553	1366.56265	1760.69946	-60.07751	1194.5388	1709.02542	-80.1372	1078.06534	1694.57047	-96.043	940.09277	1717.67624	-34.62092	829.31892	1807.94785	-103.34026	818.90991	1759.7049	-95.37329	780.99113	1822.5206	314.80427	919.62959	1832.03751	82.48687	935.60974	1856.63391	231.24321	948.12019	1617.48001	86.96501	959.52339	1633.97995	276.5818	663.82103	1667.7858	346.16646	435.04581	1786.03607	307.69278	297.86161	1661.66489	294.38528	248.92134	1460.32303	236.90676	284.81602	1429.40613	277.9632	79.52141	1498.94028	36.71359	657.62207	1727.12708	52.99602	449.05293	1879.38324	122.31284	267.81097	1911.63574	87.85003	60.5893	1843.34137	147.06532	68.52102	1783.70407	118.47118	38.76904	2010.72113
148	4.91	281.7371	1650.00732	1854.53873	97.41623	1647.37869	1846.79886	295.10656	1613.67111	1731.69952	91.49366	1623.27759	1734.07974	258.50672	1380.87173	1857.10922	135.99589	1374.12643	1857.7504	263.42587	1442.02332	1708.70148	109.20264	1438.03238	1723.71613	183.36885	1280.224	1636.633	207.24566	1313.54248	1895.93826	208.67651	1212.0369	1918.78372	384.6693	1390.2034	1774.69818	447.31548	1165.5217	1772.16095	465.54039	1082.02805	1735.80612	489.17297	974.01405	1794.89517	438.79429	879.13048	1907.07184	471.79783	847.73239	1840.59113	489.10454	824.87167	1907.09686	4.52402	1373.53546	1806.15463	-62.26078	1200.61241	1765.45395	-84.84007	1083.89023	1757.80746	-99.96061	947.70836	1790.30304	-34.49785	843.06519	1884.57443	-105.40836	829.66515	1840.72769	-94.83838	796.85699	1906.06171	311.84423	929.11568	1873.5466	78.76011	941.13113	1894.95514	230.58125	955.94551	1658.9093	86.58533	966.97983	1672.9921	275.23197	669.87717	1726.89941	348.03825	452.13276	1874.55231	307.59405	306.17153	1754.92584	290.46774	246.16528	1556.43448	232.17884	279.10135	1523.85345	275.05749	82.46804	1611.36353	35.89014	665.3376	1750.89157	51.79449	448.02433	1890.27023	120.61141	266.05118	1917.47162	88.45991	61.38181	1843.90823	148.12869	69.63353	1784.40308	118.39075	37.77359	2011.39755
149	4.943	282.07615	1655.858	1896.8692	97.58303	1652.9483	1889.96414	294.70192	1620.74844	1773.40652	90.99919	1630.02274	1777.14432	259.24648	1387.58331	1896.09787	136.89544	1381.53732	1898.66074	261.94508	1447.98706	1748.36212	108.29851	1445.19409	1764.9826	180.23527	1287.14996	1675.88974	208.36435	1320.67276	1935.81238	209.44294	1219.14528	1958.76068	384.73587	1396.04141	1811.4238	443.1403	1170.01152	1802.66342	458.30875	1087.1167	1762.86179	481.94988	975.50003	1813.65204	431.23871	871.1441	1917.55524	464.69162	845.9407	1848.94165	480.79597	816.4608	1913.42102	5.63876	1381.8927	1849.84024	-62.81321	1208.3522	1820.30167	-87.01864	1091.7128	1819.71939	-101.84194	958.3033	1862.61795	-33.48439	860.68924	1962.55875	-106.20606	844.70039	1922.10464	-93.09054	816.66466	1989.39972	307.43883	937.36153	1915.34592	73.4008	945.11124	1933.1665	232.6318	962.63245	1699.92599	88.37683	973.67043	1711.29791	279.69561	675.91263	1779.08798	349.45713	471.95793	1950.50095	307.083	310.10004	1847.8772	286.96293	227.07453	1658.93402	228.53874	255.36825	1622.07474	269.60123	74.80773	1738.0751	37.83615	672.21916	1772.8775	51.97245	447.48322	1899.63974	120.99979	265.34807	1921.96152	89.72479	61.28438	1843.62366	148.79599	70.50475	1784.65546	118.17286	37.48582	2011.53458
150	4.977	283.36329	1658.90518	1938.4642	98.78382	1656.58051	1932.38342	295.20956	1625.18997	1814.45236	91.42644	1635.0116	1819.27628	259.93752	1392.02927	1935.28778	137.86929	1387.14706	1939.59351	261.16789	1451.67023	1788.38303	107.86015	1450.29877	1805.80887	177.61274	1292.01508	1714.69589	209.26746	1325.448	1975.73746	209.67743	1223.87161	1998.62473	385.20218	1399.87167	1849.00146	439.91199	1173.17719	1832.47513	452.24709	1091.40358	1788.90625	475.41328	976.68861	1831.58997	424.83616	864.7599	1928.01407	457.28939	845.00076	1857.41043	473.39344	809.46159	1918.76694	6.85551	1389.17068	1893.11447	-63.04534	1215.47394	1872.71591	-88.44549	1099.12384	1878.56674	-102.19341	968.99818	1932.47513	-31.83756	880.22186	2039.22455	-104.98368	860.60661	2001.41113	-90.85352	838.53462	2070.56458	303.88948	942.30751	1956.57928	69.19117	945.95039	1971.29059	235.37151	965.52917	1740.28748	90.73834	977.27669	1749.36295	288.23118	678.80722	1826.97815	347.78435	486.46305	2018.05313	305.28473	309.15003	1940.73776	284.87875	195.92915	1768.54263	225.94709	216.45561	1727.33856	268.44507	64.28278	1875.9523	42.14004	679.78615	1794.86374	50.57575	446.99501	1905.58273	118.92377	263.91125	1923.85925	90.30329	61.43171	1844.39758	149.52809	71.57053	1785.23071	117.82007	37.06404	2011.39206
